<svg width="40" height="40" viewBox="0 0 40 40" fill="none" xmlns="http://www.w3.org/2000/svg">
<path d="M19.9844 2.97901C10.3242 2.9751 2.5 10.7954 2.5 20.4478C2.5 28.0806 7.39453 34.5689 14.2109 36.9517C15.1289 37.1821 14.9883 36.5298 14.9883 36.0845V33.0571C9.6875 33.6782 9.47266 30.1704 9.11719 29.5845C8.39844 28.3579 6.69922 28.0454 7.20703 27.4595C8.41406 26.8384 9.64453 27.6157 11.0703 29.7212C12.1016 31.2485 14.1133 30.9907 15.1328 30.7368C15.3555 29.8189 15.832 28.9985 16.4883 28.3618C10.9961 27.3774 8.70703 24.0259 8.70703 20.0415C8.70703 18.1079 9.34375 16.3306 10.5938 14.897C9.79688 12.5337 10.668 10.5103 10.7852 10.2095C13.0547 10.0063 15.4141 11.8345 15.5977 11.979C16.8867 11.6314 18.3594 11.4478 20.0078 11.4478C21.6641 11.4478 23.1406 11.6392 24.4414 11.9907C24.8828 11.6548 27.0703 10.0845 29.1797 10.2759C29.293 10.5767 30.1445 12.5532 29.3945 14.8853C30.6602 16.3228 31.3047 18.1157 31.3047 20.0532C31.3047 24.0454 29 27.4009 23.4922 28.3696C23.9639 28.8336 24.3385 29.3869 24.5941 29.9972C24.8496 30.6075 24.981 31.2627 24.9805 31.9243V36.3189C25.0117 36.6704 24.9805 37.0181 25.5664 37.0181C32.4844 34.686 37.4648 28.1509 37.4648 20.4517C37.4648 10.7954 29.6367 2.97901 19.9844 2.97901Z" fill="#171F3F"/>
</svg>
