<svg width="20" height="20" viewBox="0 0 20 20" fill="none" xmlns="http://www.w3.org/2000/svg">
<path d="M18.125 2.73438H1.875C1.5293 2.73438 1.25 3.01367 1.25 3.35938V13.0469C1.25 13.3926 1.5293 13.6719 1.875 13.6719H9.29688V15.8594H5.9375C5.76562 15.8594 5.625 16 5.625 16.1719V17.1094C5.625 17.1953 5.69531 17.2656 5.78125 17.2656H14.2188C14.3047 17.2656 14.375 17.1953 14.375 17.1094V16.1719C14.375 16 14.2344 15.8594 14.0625 15.8594H10.7031V13.6719H18.125C18.4707 13.6719 18.75 13.3926 18.75 13.0469V3.35938C18.75 3.01367 18.4707 2.73438 18.125 2.73438ZM17.3438 12.2656H2.65625V4.14062H17.3438V12.2656Z" fill="#0593FB"/>
</svg>
