<svg width="26" height="26" viewBox="0 0 26 26" fill="none" xmlns="http://www.w3.org/2000/svg">
<path d="M12.9987 8.83521C10.7049 8.83521 8.83306 10.7071 8.83306 13.0008C8.83306 15.2946 10.7049 17.1665 12.9987 17.1665C15.2924 17.1665 17.1643 15.2946 17.1643 13.0008C17.1643 10.7071 15.2924 8.83521 12.9987 8.83521ZM25.4924 13.0008C25.4924 11.2758 25.5081 9.56646 25.4112 7.84458C25.3143 5.84458 24.8581 4.06958 23.3956 2.60708C21.9299 1.14146 20.1581 0.688332 18.1581 0.591457C16.4331 0.494582 14.7237 0.510207 13.0018 0.510207C11.2768 0.510207 9.56743 0.494582 7.84556 0.591457C5.84556 0.688332 4.07056 1.14458 2.60806 2.60708C1.14243 4.07271 0.689308 5.84458 0.592433 7.84458C0.495558 9.56958 0.511183 11.279 0.511183 13.0008C0.511183 14.7227 0.495558 16.4352 0.592433 18.1571C0.689308 20.1571 1.14556 21.9321 2.60806 23.3946C4.07368 24.8602 5.84556 25.3133 7.84556 25.4102C9.57056 25.5071 11.2799 25.4915 13.0018 25.4915C14.7268 25.4915 16.4362 25.5071 18.1581 25.4102C20.1581 25.3133 21.9331 24.8571 23.3956 23.3946C24.8612 21.929 25.3143 20.1571 25.4112 18.1571C25.5112 16.4352 25.4924 14.7258 25.4924 13.0008ZM12.9987 19.4102C9.45181 19.4102 6.58931 16.5477 6.58931 13.0008C6.58931 9.45396 9.45181 6.59146 12.9987 6.59146C16.5456 6.59146 19.4081 9.45396 19.4081 13.0008C19.4081 16.5477 16.5456 19.4102 12.9987 19.4102ZM19.6706 7.82583C18.8424 7.82583 18.1737 7.15708 18.1737 6.32896C18.1737 5.50083 18.8424 4.83208 19.6706 4.83208C20.4987 4.83208 21.1674 5.50083 21.1674 6.32896C21.1677 6.5256 21.1291 6.72036 21.054 6.90208C20.9789 7.0838 20.8686 7.24891 20.7296 7.38796C20.5905 7.527 20.4254 7.63725 20.2437 7.71239C20.062 7.78753 19.8672 7.82608 19.6706 7.82583Z" fill="white"/>
</svg>
